<mxfile host="app.diagrams.net" modified="2023-09-26T10:41:48.657Z" agent="Mozilla/5.0 (Windows NT 10.0; Win64; x64) AppleWebKit/537.36 (KHTML, like Gecko) Chrome/116.0.0.0 Safari/537.36 OPR/102.0.0.0" etag="CYYC8pdRohJlIMdklaSA" version="21.8.1" type="github" pages="3">
  <diagram name="Страница — 1" id="t9uED5VoqBTK2rHfKc9C">
    <mxGraphModel dx="3474" dy="3723" grid="1" gridSize="10" guides="1" tooltips="1" connect="1" arrows="1" fold="1" page="1" pageScale="1" pageWidth="827" pageHeight="1169" math="0" shadow="0">
      <root>
        <mxCell id="0" />
        <mxCell id="1" parent="0" />
        <mxCell id="Wo51BPqTIGcGAbiIUXaj-1" value="" style="strokeWidth=1;shadow=0;dashed=0;align=center;html=1;shape=mxgraph.mockup.containers.browserWindow;rSize=0;strokeColor=#666666;strokeColor2=#97D077;strokeColor3=#c4c4c4;mainText=,;recursiveResize=0;" parent="1" vertex="1">
          <mxGeometry x="-250" y="40" width="620" height="350" as="geometry" />
        </mxCell>
        <mxCell id="Wo51BPqTIGcGAbiIUXaj-2" value="Page" style="strokeWidth=1;shadow=0;dashed=0;align=center;html=1;shape=mxgraph.mockup.containers.anchor;fontSize=17;fontColor=#666666;align=left;whiteSpace=wrap;" parent="Wo51BPqTIGcGAbiIUXaj-1" vertex="1">
          <mxGeometry x="60" y="12" width="110" height="26" as="geometry" />
        </mxCell>
        <mxCell id="Wo51BPqTIGcGAbiIUXaj-3" value="https://www.asfi.com/signup" style="strokeWidth=1;shadow=0;dashed=0;align=center;html=1;shape=mxgraph.mockup.containers.anchor;rSize=0;fontSize=17;fontColor=#666666;align=left;" parent="Wo51BPqTIGcGAbiIUXaj-1" vertex="1">
          <mxGeometry x="130" y="60" width="250" height="26" as="geometry" />
        </mxCell>
        <mxCell id="Wo51BPqTIGcGAbiIUXaj-4" value="&lt;b&gt;&lt;font style=&quot;font-size: 22px;&quot;&gt;Реєстрація&lt;/font&gt;&lt;/b&gt;" style="text;html=1;strokeColor=none;fillColor=none;align=center;verticalAlign=middle;whiteSpace=wrap;rounded=0;" parent="Wo51BPqTIGcGAbiIUXaj-1" vertex="1">
          <mxGeometry x="280" y="140" width="60" height="30" as="geometry" />
        </mxCell>
        <mxCell id="Wo51BPqTIGcGAbiIUXaj-5" value="e-mail" style="strokeWidth=1;shadow=0;dashed=0;align=center;html=1;shape=mxgraph.mockup.text.textBox;fontColor=#666666;align=left;fontSize=17;spacingLeft=4;spacingTop=-3;whiteSpace=wrap;strokeColor=#666666;mainText=" parent="Wo51BPqTIGcGAbiIUXaj-1" vertex="1">
          <mxGeometry x="165" y="180" width="290" height="30" as="geometry" />
        </mxCell>
        <mxCell id="Wo51BPqTIGcGAbiIUXaj-6" value="пароль" style="strokeWidth=1;shadow=0;dashed=0;align=center;html=1;shape=mxgraph.mockup.text.textBox;fontColor=#666666;align=left;fontSize=17;spacingLeft=4;spacingTop=-3;whiteSpace=wrap;strokeColor=#666666;mainText=" parent="Wo51BPqTIGcGAbiIUXaj-1" vertex="1">
          <mxGeometry x="165" y="220" width="290" height="30" as="geometry" />
        </mxCell>
        <mxCell id="Wo51BPqTIGcGAbiIUXaj-7" value="&lt;b&gt;&lt;font style=&quot;font-size: 15px;&quot;&gt;Зареєструватись&lt;/font&gt;&lt;/b&gt;" style="rounded=1;fillColor=#d5e8d4;strokeColor=#82b366;html=1;whiteSpace=wrap;align=center;verticalAlign=middle;fontStyle=0;fontSize=12;sketch=0;" parent="Wo51BPqTIGcGAbiIUXaj-1" vertex="1">
          <mxGeometry x="223.64" y="260" width="176.36" height="30" as="geometry" />
        </mxCell>
        <mxCell id="Wo51BPqTIGcGAbiIUXaj-8" value="&lt;font style=&quot;font-size: 14px;&quot;&gt;&lt;b&gt;Вже маю&lt;br&gt;акаунт&lt;/b&gt;&lt;br&gt;&lt;/font&gt;" style="rounded=1;fillColor=#d5e8d4;strokeColor=#82b366;html=1;whiteSpace=wrap;align=center;verticalAlign=middle;fontStyle=0;fontSize=12;sketch=0;" parent="Wo51BPqTIGcGAbiIUXaj-1" vertex="1">
          <mxGeometry x="257.88" y="300" width="104.24" height="40" as="geometry" />
        </mxCell>
        <mxCell id="Wo51BPqTIGcGAbiIUXaj-17" value="" style="endArrow=classic;html=1;rounded=0;exitX=1;exitY=0.5;exitDx=0;exitDy=0;" parent="1" source="Wo51BPqTIGcGAbiIUXaj-7" target="WOSemhm9r2e5wN50aMGR-23" edge="1">
          <mxGeometry width="50" height="50" relative="1" as="geometry">
            <mxPoint x="450" y="380" as="sourcePoint" />
            <mxPoint x="459.8199999999997" y="708.8400000000001" as="targetPoint" />
          </mxGeometry>
        </mxCell>
        <mxCell id="Wo51BPqTIGcGAbiIUXaj-18" value="" style="endArrow=classic;html=1;rounded=0;exitX=0;exitY=0.5;exitDx=0;exitDy=0;" parent="1" source="WOSemhm9r2e5wN50aMGR-10" target="WOSemhm9r2e5wN50aMGR-23" edge="1">
          <mxGeometry width="50" height="50" relative="1" as="geometry">
            <mxPoint x="1036.6499999999996" y="470" as="sourcePoint" />
            <mxPoint x="495.71000000000004" y="711.1599999999999" as="targetPoint" />
          </mxGeometry>
        </mxCell>
        <mxCell id="Wo51BPqTIGcGAbiIUXaj-19" value="" style="endArrow=classic;html=1;rounded=0;exitX=1;exitY=0.5;exitDx=0;exitDy=0;entryX=0.005;entryY=0.581;entryDx=0;entryDy=0;entryPerimeter=0;" parent="1" source="Wo51BPqTIGcGAbiIUXaj-8" target="WOSemhm9r2e5wN50aMGR-3" edge="1">
          <mxGeometry width="50" height="50" relative="1" as="geometry">
            <mxPoint x="320" y="690" as="sourcePoint" />
            <mxPoint x="370" y="640" as="targetPoint" />
          </mxGeometry>
        </mxCell>
        <mxCell id="WOSemhm9r2e5wN50aMGR-3" value="" style="strokeWidth=1;shadow=0;dashed=0;align=center;html=1;shape=mxgraph.mockup.containers.browserWindow;rSize=0;strokeColor=#666666;strokeColor2=#97D077;strokeColor3=#c4c4c4;mainText=,;recursiveResize=0;" vertex="1" parent="1">
          <mxGeometry x="540" y="40" width="620" height="350" as="geometry" />
        </mxCell>
        <mxCell id="WOSemhm9r2e5wN50aMGR-4" value="Page" style="strokeWidth=1;shadow=0;dashed=0;align=center;html=1;shape=mxgraph.mockup.containers.anchor;fontSize=17;fontColor=#666666;align=left;whiteSpace=wrap;" vertex="1" parent="WOSemhm9r2e5wN50aMGR-3">
          <mxGeometry x="60" y="12" width="110" height="26" as="geometry" />
        </mxCell>
        <mxCell id="WOSemhm9r2e5wN50aMGR-5" value="https://www.asfi.com/login" style="strokeWidth=1;shadow=0;dashed=0;align=center;html=1;shape=mxgraph.mockup.containers.anchor;rSize=0;fontSize=17;fontColor=#666666;align=left;" vertex="1" parent="WOSemhm9r2e5wN50aMGR-3">
          <mxGeometry x="130" y="60" width="250" height="26" as="geometry" />
        </mxCell>
        <mxCell id="WOSemhm9r2e5wN50aMGR-6" value="&lt;b&gt;&lt;font style=&quot;font-size: 22px;&quot;&gt;Реєстрація&lt;/font&gt;&lt;/b&gt;" style="text;html=1;strokeColor=none;fillColor=none;align=center;verticalAlign=middle;whiteSpace=wrap;rounded=0;" vertex="1" parent="WOSemhm9r2e5wN50aMGR-3">
          <mxGeometry x="280" y="140" width="60" height="30" as="geometry" />
        </mxCell>
        <mxCell id="WOSemhm9r2e5wN50aMGR-7" value="e-mail" style="strokeWidth=1;shadow=0;dashed=0;align=center;html=1;shape=mxgraph.mockup.text.textBox;fontColor=#666666;align=left;fontSize=17;spacingLeft=4;spacingTop=-3;whiteSpace=wrap;strokeColor=#666666;mainText=" vertex="1" parent="WOSemhm9r2e5wN50aMGR-3">
          <mxGeometry x="165" y="180" width="290" height="30" as="geometry" />
        </mxCell>
        <mxCell id="WOSemhm9r2e5wN50aMGR-8" value="пароль" style="strokeWidth=1;shadow=0;dashed=0;align=center;html=1;shape=mxgraph.mockup.text.textBox;fontColor=#666666;align=left;fontSize=17;spacingLeft=4;spacingTop=-3;whiteSpace=wrap;strokeColor=#666666;mainText=" vertex="1" parent="WOSemhm9r2e5wN50aMGR-3">
          <mxGeometry x="165" y="220" width="290" height="30" as="geometry" />
        </mxCell>
        <mxCell id="WOSemhm9r2e5wN50aMGR-9" value="&lt;b&gt;&lt;font style=&quot;font-size: 15px;&quot;&gt;Авторизуватись&lt;/font&gt;&lt;/b&gt;" style="rounded=1;fillColor=#d5e8d4;strokeColor=#82b366;html=1;whiteSpace=wrap;align=center;verticalAlign=middle;fontStyle=0;fontSize=12;sketch=0;" vertex="1" parent="WOSemhm9r2e5wN50aMGR-3">
          <mxGeometry x="223.64" y="260" width="176.36" height="30" as="geometry" />
        </mxCell>
        <mxCell id="WOSemhm9r2e5wN50aMGR-10" value="&lt;font style=&quot;font-size: 14px;&quot;&gt;&lt;b&gt;Не маю акаунт&lt;/b&gt;&lt;br&gt;&lt;/font&gt;" style="rounded=1;fillColor=#d5e8d4;strokeColor=#82b366;html=1;whiteSpace=wrap;align=center;verticalAlign=middle;fontStyle=0;fontSize=12;sketch=0;" vertex="1" parent="WOSemhm9r2e5wN50aMGR-3">
          <mxGeometry x="257.88" y="300" width="104.24" height="40" as="geometry" />
        </mxCell>
        <mxCell id="Wo51BPqTIGcGAbiIUXaj-20" value="" style="endArrow=classic;html=1;rounded=0;exitX=0;exitY=0.5;exitDx=0;exitDy=0;entryX=1.002;entryY=0.605;entryDx=0;entryDy=0;entryPerimeter=0;" parent="1" source="WOSemhm9r2e5wN50aMGR-9" target="Wo51BPqTIGcGAbiIUXaj-1" edge="1">
          <mxGeometry width="50" height="50" relative="1" as="geometry">
            <mxPoint x="960.4000000000001" y="358.55" as="sourcePoint" />
            <mxPoint x="400" y="240" as="targetPoint" />
          </mxGeometry>
        </mxCell>
        <mxCell id="WOSemhm9r2e5wN50aMGR-11" value="" style="strokeWidth=1;shadow=0;dashed=0;align=center;html=1;shape=mxgraph.mockup.containers.browserWindow;rSize=0;strokeColor=#666666;strokeColor2=#97D077;strokeColor3=#c4c4c4;mainText=,;recursiveResize=0;" vertex="1" parent="1">
          <mxGeometry x="124" y="995" width="620" height="350" as="geometry" />
        </mxCell>
        <mxCell id="WOSemhm9r2e5wN50aMGR-12" value="Page" style="strokeWidth=1;shadow=0;dashed=0;align=center;html=1;shape=mxgraph.mockup.containers.anchor;fontSize=17;fontColor=#666666;align=left;whiteSpace=wrap;" vertex="1" parent="WOSemhm9r2e5wN50aMGR-11">
          <mxGeometry x="60" y="12" width="110" height="26" as="geometry" />
        </mxCell>
        <mxCell id="WOSemhm9r2e5wN50aMGR-13" value="https://www.asfi.com/profile" style="strokeWidth=1;shadow=0;dashed=0;align=center;html=1;shape=mxgraph.mockup.containers.anchor;rSize=0;fontSize=17;fontColor=#666666;align=left;" vertex="1" parent="WOSemhm9r2e5wN50aMGR-11">
          <mxGeometry x="130" y="60" width="250" height="26" as="geometry" />
        </mxCell>
        <mxCell id="WOSemhm9r2e5wN50aMGR-14" value="&lt;b&gt;&lt;font style=&quot;font-size: 22px;&quot;&gt;Профіль&lt;/font&gt;&lt;/b&gt;" style="text;html=1;strokeColor=none;fillColor=none;align=center;verticalAlign=middle;whiteSpace=wrap;rounded=0;" vertex="1" parent="WOSemhm9r2e5wN50aMGR-11">
          <mxGeometry x="280" y="120" width="60" height="30" as="geometry" />
        </mxCell>
        <mxCell id="WOSemhm9r2e5wN50aMGR-30" value="e-mail" style="strokeWidth=1;shadow=0;dashed=0;align=center;html=1;shape=mxgraph.mockup.text.textBox;fontColor=#666666;align=left;fontSize=17;spacingLeft=4;spacingTop=-3;whiteSpace=wrap;strokeColor=#666666;mainText=" vertex="1" parent="WOSemhm9r2e5wN50aMGR-11">
          <mxGeometry x="165" y="160" width="290" height="30" as="geometry" />
        </mxCell>
        <mxCell id="WOSemhm9r2e5wN50aMGR-31" value="&lt;b&gt;&lt;font style=&quot;font-size: 15px;&quot;&gt;Змінити пароль&lt;/font&gt;&lt;/b&gt;" style="rounded=1;fillColor=#d5e8d4;strokeColor=#82b366;html=1;whiteSpace=wrap;align=center;verticalAlign=middle;fontStyle=0;fontSize=12;sketch=0;" vertex="1" parent="WOSemhm9r2e5wN50aMGR-11">
          <mxGeometry x="221.82" y="280" width="176.36" height="40" as="geometry" />
        </mxCell>
        <mxCell id="WOSemhm9r2e5wN50aMGR-32" value="старий пароль" style="strokeWidth=1;shadow=0;dashed=0;align=center;html=1;shape=mxgraph.mockup.text.textBox;fontColor=#666666;align=left;fontSize=17;spacingLeft=4;spacingTop=-3;whiteSpace=wrap;strokeColor=#666666;mainText=" vertex="1" parent="WOSemhm9r2e5wN50aMGR-11">
          <mxGeometry x="165" y="200" width="290" height="30" as="geometry" />
        </mxCell>
        <mxCell id="WOSemhm9r2e5wN50aMGR-33" value="новий пароль" style="strokeWidth=1;shadow=0;dashed=0;align=center;html=1;shape=mxgraph.mockup.text.textBox;fontColor=#666666;align=left;fontSize=17;spacingLeft=4;spacingTop=-3;whiteSpace=wrap;strokeColor=#666666;mainText=" vertex="1" parent="WOSemhm9r2e5wN50aMGR-11">
          <mxGeometry x="165" y="240" width="290" height="30" as="geometry" />
        </mxCell>
        <mxCell id="WOSemhm9r2e5wN50aMGR-23" value="" style="strokeWidth=1;shadow=0;dashed=0;align=center;html=1;shape=mxgraph.mockup.containers.browserWindow;rSize=0;strokeColor=#666666;strokeColor2=#97D077;strokeColor3=#c4c4c4;mainText=,;recursiveResize=0;" vertex="1" parent="1">
          <mxGeometry x="124" y="585" width="620" height="350" as="geometry" />
        </mxCell>
        <mxCell id="WOSemhm9r2e5wN50aMGR-24" value="Page" style="strokeWidth=1;shadow=0;dashed=0;align=center;html=1;shape=mxgraph.mockup.containers.anchor;fontSize=17;fontColor=#666666;align=left;whiteSpace=wrap;" vertex="1" parent="WOSemhm9r2e5wN50aMGR-23">
          <mxGeometry x="60" y="12" width="110" height="26" as="geometry" />
        </mxCell>
        <mxCell id="WOSemhm9r2e5wN50aMGR-25" value="https://www.asfi.com/menu" style="strokeWidth=1;shadow=0;dashed=0;align=center;html=1;shape=mxgraph.mockup.containers.anchor;rSize=0;fontSize=17;fontColor=#666666;align=left;" vertex="1" parent="WOSemhm9r2e5wN50aMGR-23">
          <mxGeometry x="130" y="60" width="250" height="26" as="geometry" />
        </mxCell>
        <mxCell id="WOSemhm9r2e5wN50aMGR-26" value="&lt;b&gt;&lt;font style=&quot;font-size: 22px;&quot;&gt;Меню&lt;/font&gt;&lt;/b&gt;" style="text;html=1;strokeColor=none;fillColor=none;align=center;verticalAlign=middle;whiteSpace=wrap;rounded=0;" vertex="1" parent="WOSemhm9r2e5wN50aMGR-23">
          <mxGeometry x="280" y="140" width="60" height="30" as="geometry" />
        </mxCell>
        <mxCell id="WOSemhm9r2e5wN50aMGR-27" value="&amp;nbsp; Формування допоміжного пакету" style="strokeWidth=1;shadow=0;dashed=0;align=center;html=1;shape=mxgraph.mockup.text.textBox;fontColor=#666666;align=left;fontSize=17;spacingLeft=4;spacingTop=-3;whiteSpace=wrap;strokeColor=#666666;mainText=" vertex="1" parent="WOSemhm9r2e5wN50aMGR-23">
          <mxGeometry x="165" y="220" width="290" height="40" as="geometry" />
        </mxCell>
        <mxCell id="WOSemhm9r2e5wN50aMGR-28" value="&lt;span style=&quot;white-space: pre;&quot;&gt;&#x9;&lt;/span&gt;&lt;span style=&quot;white-space: pre;&quot;&gt;&#x9;&lt;/span&gt;&amp;nbsp; &amp;nbsp; &amp;nbsp; Профіль" style="strokeWidth=1;shadow=0;dashed=0;align=center;html=1;shape=mxgraph.mockup.text.textBox;fontColor=#666666;align=left;fontSize=17;spacingLeft=4;spacingTop=-3;whiteSpace=wrap;strokeColor=#666666;mainText=" vertex="1" parent="WOSemhm9r2e5wN50aMGR-23">
          <mxGeometry x="165" y="270" width="290" height="40" as="geometry" />
        </mxCell>
        <mxCell id="WOSemhm9r2e5wN50aMGR-29" value="&lt;span style=&quot;white-space: pre;&quot;&gt;&#x9;&lt;/span&gt;&lt;span style=&quot;white-space: pre;&quot;&gt;&#x9;&lt;/span&gt;&amp;nbsp;Аналіз безпеки" style="strokeWidth=1;shadow=0;dashed=0;align=center;html=1;shape=mxgraph.mockup.text.textBox;fontColor=#666666;align=left;fontSize=17;spacingLeft=4;spacingTop=-3;whiteSpace=wrap;strokeColor=#666666;mainText=" vertex="1" parent="WOSemhm9r2e5wN50aMGR-23">
          <mxGeometry x="165" y="170" width="290" height="40" as="geometry" />
        </mxCell>
        <mxCell id="WOSemhm9r2e5wN50aMGR-34" value="" style="strokeWidth=1;shadow=0;dashed=0;align=center;html=1;shape=mxgraph.mockup.containers.browserWindow;rSize=0;strokeColor=#666666;strokeColor2=#97D077;strokeColor3=#c4c4c4;mainText=,;recursiveResize=0;" vertex="1" parent="1">
          <mxGeometry x="-620" y="585" width="620" height="350" as="geometry" />
        </mxCell>
        <mxCell id="WOSemhm9r2e5wN50aMGR-35" value="Page" style="strokeWidth=1;shadow=0;dashed=0;align=center;html=1;shape=mxgraph.mockup.containers.anchor;fontSize=17;fontColor=#666666;align=left;whiteSpace=wrap;" vertex="1" parent="WOSemhm9r2e5wN50aMGR-34">
          <mxGeometry x="60" y="12" width="110" height="26" as="geometry" />
        </mxCell>
        <mxCell id="WOSemhm9r2e5wN50aMGR-36" value="https://www.asfi.com/start_analysis" style="strokeWidth=1;shadow=0;dashed=0;align=center;html=1;shape=mxgraph.mockup.containers.anchor;rSize=0;fontSize=17;fontColor=#666666;align=left;" vertex="1" parent="WOSemhm9r2e5wN50aMGR-34">
          <mxGeometry x="130" y="60" width="250" height="26" as="geometry" />
        </mxCell>
        <mxCell id="WOSemhm9r2e5wN50aMGR-37" value="&lt;b&gt;&lt;font style=&quot;font-size: 22px;&quot;&gt;Аналіз&amp;nbsp; безпеки&lt;/font&gt;&lt;/b&gt;" style="text;html=1;strokeColor=none;fillColor=none;align=center;verticalAlign=middle;whiteSpace=wrap;rounded=0;" vertex="1" parent="WOSemhm9r2e5wN50aMGR-34">
          <mxGeometry x="220" y="160" width="180" height="30" as="geometry" />
        </mxCell>
        <mxCell id="WOSemhm9r2e5wN50aMGR-40" value="&amp;nbsp; &amp;nbsp;Почати аналіз заходів безпеки&amp;nbsp; &amp;nbsp; &amp;nbsp; &amp;nbsp; &amp;nbsp; &amp;nbsp; &amp;nbsp; &amp;nbsp; &amp;nbsp; &amp;nbsp;робочого простору" style="strokeWidth=1;shadow=0;dashed=0;align=center;html=1;shape=mxgraph.mockup.text.textBox;fontColor=#666666;align=left;fontSize=17;spacingLeft=4;spacingTop=-3;whiteSpace=wrap;strokeColor=#666666;mainText=" vertex="1" parent="WOSemhm9r2e5wN50aMGR-34">
          <mxGeometry x="165" y="230" width="290" height="40" as="geometry" />
        </mxCell>
        <mxCell id="WOSemhm9r2e5wN50aMGR-42" value="" style="strokeWidth=1;shadow=0;dashed=0;align=center;html=1;shape=mxgraph.mockup.containers.browserWindow;rSize=0;strokeColor=#666666;strokeColor2=#97D077;strokeColor3=#c4c4c4;mainText=,;recursiveResize=0;" vertex="1" parent="1">
          <mxGeometry x="-620" y="995" width="620" height="350" as="geometry" />
        </mxCell>
        <mxCell id="WOSemhm9r2e5wN50aMGR-43" value="Page" style="strokeWidth=1;shadow=0;dashed=0;align=center;html=1;shape=mxgraph.mockup.containers.anchor;fontSize=17;fontColor=#666666;align=left;whiteSpace=wrap;" vertex="1" parent="WOSemhm9r2e5wN50aMGR-42">
          <mxGeometry x="60" y="12" width="110" height="26" as="geometry" />
        </mxCell>
        <mxCell id="WOSemhm9r2e5wN50aMGR-44" value="https://www.asfi.com/analysis_result?id=xxxx" style="strokeWidth=1;shadow=0;dashed=0;align=center;html=1;shape=mxgraph.mockup.containers.anchor;rSize=0;fontSize=17;fontColor=#666666;align=left;" vertex="1" parent="WOSemhm9r2e5wN50aMGR-42">
          <mxGeometry x="130" y="60" width="250" height="26" as="geometry" />
        </mxCell>
        <mxCell id="WOSemhm9r2e5wN50aMGR-45" value="&lt;b&gt;&lt;font style=&quot;font-size: 22px;&quot;&gt;Результати аналізу&lt;/font&gt;&lt;/b&gt;" style="text;html=1;strokeColor=none;fillColor=none;align=center;verticalAlign=middle;whiteSpace=wrap;rounded=0;" vertex="1" parent="WOSemhm9r2e5wN50aMGR-42">
          <mxGeometry x="190" y="120" width="240" height="30" as="geometry" />
        </mxCell>
        <mxCell id="WOSemhm9r2e5wN50aMGR-47" value="" style="verticalLabelPosition=bottom;shadow=0;dashed=0;align=center;html=1;verticalAlign=top;strokeWidth=1;shape=mxgraph.mockup.graphics.columnChart;strokeColor2=none;strokeColor3=#666666;fillColor2=#97D077;fillColor3=#dddddd;" vertex="1" parent="WOSemhm9r2e5wN50aMGR-42">
          <mxGeometry x="130" y="160" width="360" height="170" as="geometry" />
        </mxCell>
        <mxCell id="WOSemhm9r2e5wN50aMGR-48" value="" style="strokeWidth=1;shadow=0;dashed=0;align=center;html=1;shape=mxgraph.mockup.containers.browserWindow;rSize=0;strokeColor=#666666;strokeColor2=#97D077;strokeColor3=#c4c4c4;mainText=,;recursiveResize=0;" vertex="1" parent="1">
          <mxGeometry x="890" y="585" width="620" height="350" as="geometry" />
        </mxCell>
        <mxCell id="WOSemhm9r2e5wN50aMGR-49" value="Page" style="strokeWidth=1;shadow=0;dashed=0;align=center;html=1;shape=mxgraph.mockup.containers.anchor;fontSize=17;fontColor=#666666;align=left;whiteSpace=wrap;" vertex="1" parent="WOSemhm9r2e5wN50aMGR-48">
          <mxGeometry x="60" y="12" width="110" height="26" as="geometry" />
        </mxCell>
        <mxCell id="WOSemhm9r2e5wN50aMGR-50" value="https://www.asfi.com/menu" style="strokeWidth=1;shadow=0;dashed=0;align=center;html=1;shape=mxgraph.mockup.containers.anchor;rSize=0;fontSize=17;fontColor=#666666;align=left;" vertex="1" parent="WOSemhm9r2e5wN50aMGR-48">
          <mxGeometry x="130" y="60" width="250" height="26" as="geometry" />
        </mxCell>
        <mxCell id="WOSemhm9r2e5wN50aMGR-51" value="&lt;b&gt;&lt;font style=&quot;font-size: 22px;&quot;&gt;Сформувати допоміжний пакет&lt;/font&gt;&lt;/b&gt;" style="text;html=1;strokeColor=none;fillColor=none;align=center;verticalAlign=middle;whiteSpace=wrap;rounded=0;" vertex="1" parent="WOSemhm9r2e5wN50aMGR-48">
          <mxGeometry x="130" y="140" width="360" height="30" as="geometry" />
        </mxCell>
        <mxCell id="WOSemhm9r2e5wN50aMGR-52" value="&amp;nbsp; &amp;nbsp;Сформувати допоміжний пакет" style="strokeWidth=1;shadow=0;dashed=0;align=center;html=1;shape=mxgraph.mockup.text.textBox;fontColor=#666666;align=left;fontSize=17;spacingLeft=4;spacingTop=-3;whiteSpace=wrap;strokeColor=#666666;mainText=" vertex="1" parent="WOSemhm9r2e5wN50aMGR-48">
          <mxGeometry x="165" y="180" width="290" height="40" as="geometry" />
        </mxCell>
        <mxCell id="WOSemhm9r2e5wN50aMGR-56" value="" style="strokeWidth=1;shadow=0;dashed=0;align=center;html=1;shape=mxgraph.mockup.containers.browserWindow;rSize=0;strokeColor=#666666;strokeColor2=#97D077;strokeColor3=#c4c4c4;mainText=,;recursiveResize=0;" vertex="1" parent="1">
          <mxGeometry x="890" y="995" width="620" height="350" as="geometry" />
        </mxCell>
        <mxCell id="WOSemhm9r2e5wN50aMGR-57" value="Page" style="strokeWidth=1;shadow=0;dashed=0;align=center;html=1;shape=mxgraph.mockup.containers.anchor;fontSize=17;fontColor=#666666;align=left;whiteSpace=wrap;" vertex="1" parent="WOSemhm9r2e5wN50aMGR-56">
          <mxGeometry x="60" y="12" width="110" height="26" as="geometry" />
        </mxCell>
        <mxCell id="WOSemhm9r2e5wN50aMGR-58" value="https://www.asfi.com/menu" style="strokeWidth=1;shadow=0;dashed=0;align=center;html=1;shape=mxgraph.mockup.containers.anchor;rSize=0;fontSize=17;fontColor=#666666;align=left;" vertex="1" parent="WOSemhm9r2e5wN50aMGR-56">
          <mxGeometry x="130" y="60" width="250" height="26" as="geometry" />
        </mxCell>
        <mxCell id="WOSemhm9r2e5wN50aMGR-59" value="&lt;span style=&quot;font-size: 22px;&quot;&gt;&lt;b&gt;Пакет допомоги для споживачів&lt;/b&gt;&lt;/span&gt;" style="text;html=1;strokeColor=none;fillColor=none;align=center;verticalAlign=middle;whiteSpace=wrap;rounded=0;" vertex="1" parent="WOSemhm9r2e5wN50aMGR-56">
          <mxGeometry x="130" y="140" width="360" height="30" as="geometry" />
        </mxCell>
        <mxCell id="WOSemhm9r2e5wN50aMGR-61" value="" style="shape=note;size=20;whiteSpace=wrap;html=1;" vertex="1" parent="WOSemhm9r2e5wN50aMGR-56">
          <mxGeometry x="85" y="200" width="450" height="100" as="geometry" />
        </mxCell>
        <mxCell id="Wo51BPqTIGcGAbiIUXaj-50" value="" style="endArrow=classic;html=1;rounded=0;exitX=1;exitY=0.552;exitDx=0;exitDy=0;exitPerimeter=0;entryX=-0.003;entryY=0.562;entryDx=0;entryDy=0;entryPerimeter=0;" parent="1" source="WOSemhm9r2e5wN50aMGR-27" target="WOSemhm9r2e5wN50aMGR-48" edge="1">
          <mxGeometry width="50" height="50" relative="1" as="geometry">
            <mxPoint x="628.2600000000002" y="254.75999999999976" as="sourcePoint" />
            <mxPoint x="776.6699999999996" y="255.01999999999998" as="targetPoint" />
          </mxGeometry>
        </mxCell>
        <mxCell id="Wo51BPqTIGcGAbiIUXaj-37" value="" style="endArrow=classic;html=1;rounded=0;entryX=1.004;entryY=0.57;entryDx=0;entryDy=0;entryPerimeter=0;exitX=0;exitY=0.5;exitDx=0;exitDy=0;exitPerimeter=0;" parent="1" source="WOSemhm9r2e5wN50aMGR-29" target="WOSemhm9r2e5wN50aMGR-34" edge="1">
          <mxGeometry width="50" height="50" relative="1" as="geometry">
            <mxPoint x="180" y="355" as="sourcePoint" />
            <mxPoint x="191.10999999999967" y="195.2800000000002" as="targetPoint" />
          </mxGeometry>
        </mxCell>
        <mxCell id="Wo51BPqTIGcGAbiIUXaj-57" value="" style="endArrow=classic;html=1;rounded=0;exitX=0.471;exitY=1.136;exitDx=0;exitDy=0;exitPerimeter=0;entryX=0.482;entryY=-0.013;entryDx=0;entryDy=0;entryPerimeter=0;" parent="1" source="WOSemhm9r2e5wN50aMGR-40" target="WOSemhm9r2e5wN50aMGR-42" edge="1">
          <mxGeometry width="50" height="50" relative="1" as="geometry">
            <mxPoint x="-230.00000000000014" y="395.0999999999999" as="sourcePoint" />
            <mxPoint x="-377.09000000000026" y="395" as="targetPoint" />
          </mxGeometry>
        </mxCell>
        <mxCell id="B-7UnJpcaLRoUsgeed5q-1" value="" style="endArrow=classic;html=1;rounded=0;exitX=0.514;exitY=1.035;exitDx=0;exitDy=0;exitPerimeter=0;entryX=0.508;entryY=0.002;entryDx=0;entryDy=0;entryPerimeter=0;" edge="1" parent="1" source="WOSemhm9r2e5wN50aMGR-28" target="WOSemhm9r2e5wN50aMGR-11">
          <mxGeometry width="50" height="50" relative="1" as="geometry">
            <mxPoint x="413" y="865" as="sourcePoint" />
            <mxPoint x="410" y="995" as="targetPoint" />
          </mxGeometry>
        </mxCell>
        <mxCell id="B-7UnJpcaLRoUsgeed5q-2" value="" style="endArrow=classic;html=1;rounded=0;entryX=0.494;entryY=-0.006;entryDx=0;entryDy=0;entryPerimeter=0;exitX=0.466;exitY=1.025;exitDx=0;exitDy=0;exitPerimeter=0;" edge="1" parent="1" source="WOSemhm9r2e5wN50aMGR-52" target="WOSemhm9r2e5wN50aMGR-56">
          <mxGeometry width="50" height="50" relative="1" as="geometry">
            <mxPoint x="1220" y="895" as="sourcePoint" />
            <mxPoint x="1221" y="995" as="targetPoint" />
          </mxGeometry>
        </mxCell>
      </root>
    </mxGraphModel>
  </diagram>
  <diagram id="mpnoGL42FYZwrAB0uJnT" name="Страница — 2">
    <mxGraphModel dx="3096" dy="3191" grid="1" gridSize="10" guides="1" tooltips="1" connect="1" arrows="1" fold="1" page="1" pageScale="1" pageWidth="827" pageHeight="1169" math="0" shadow="0">
      <root>
        <mxCell id="0" />
        <mxCell id="1" parent="0" />
        <mxCell id="aUWq5APx-vENAy1kqgZi-1" value="" style="strokeWidth=1;shadow=0;dashed=0;align=center;html=1;shape=mxgraph.mockup.containers.browserWindow;rSize=0;strokeColor=#666666;strokeColor2=#97D077;strokeColor3=#c4c4c4;mainText=,;recursiveResize=0;" vertex="1" parent="1">
          <mxGeometry x="660" y="50" width="620" height="350" as="geometry" />
        </mxCell>
        <mxCell id="aUWq5APx-vENAy1kqgZi-2" value="Page" style="strokeWidth=1;shadow=0;dashed=0;align=center;html=1;shape=mxgraph.mockup.containers.anchor;fontSize=17;fontColor=#666666;align=left;whiteSpace=wrap;" vertex="1" parent="aUWq5APx-vENAy1kqgZi-1">
          <mxGeometry x="60" y="12" width="110" height="26" as="geometry" />
        </mxCell>
        <mxCell id="aUWq5APx-vENAy1kqgZi-3" value="https://www.asfi.com/menu" style="strokeWidth=1;shadow=0;dashed=0;align=center;html=1;shape=mxgraph.mockup.containers.anchor;rSize=0;fontSize=17;fontColor=#666666;align=left;" vertex="1" parent="aUWq5APx-vENAy1kqgZi-1">
          <mxGeometry x="130" y="60" width="250" height="26" as="geometry" />
        </mxCell>
        <mxCell id="aUWq5APx-vENAy1kqgZi-4" value="&lt;b&gt;&lt;font style=&quot;font-size: 22px;&quot;&gt;Меню&lt;/font&gt;&lt;/b&gt;" style="text;html=1;strokeColor=none;fillColor=none;align=center;verticalAlign=middle;whiteSpace=wrap;rounded=0;" vertex="1" parent="aUWq5APx-vENAy1kqgZi-1">
          <mxGeometry x="280" y="140" width="60" height="30" as="geometry" />
        </mxCell>
        <mxCell id="aUWq5APx-vENAy1kqgZi-5" value="&amp;nbsp; Формування допоміжного пакету" style="strokeWidth=1;shadow=0;dashed=0;align=center;html=1;shape=mxgraph.mockup.text.textBox;fontColor=#666666;align=left;fontSize=17;spacingLeft=4;spacingTop=-3;whiteSpace=wrap;strokeColor=#666666;mainText=" vertex="1" parent="aUWq5APx-vENAy1kqgZi-1">
          <mxGeometry x="165" y="220" width="290" height="40" as="geometry" />
        </mxCell>
        <mxCell id="aUWq5APx-vENAy1kqgZi-6" value="&lt;span style=&quot;white-space: pre;&quot;&gt;&#x9;&lt;/span&gt;&lt;span style=&quot;white-space: pre;&quot;&gt;&#x9;&lt;/span&gt;&amp;nbsp; &amp;nbsp; &amp;nbsp; Профіль" style="strokeWidth=1;shadow=0;dashed=0;align=center;html=1;shape=mxgraph.mockup.text.textBox;fontColor=#666666;align=left;fontSize=17;spacingLeft=4;spacingTop=-3;whiteSpace=wrap;strokeColor=#666666;mainText=" vertex="1" parent="aUWq5APx-vENAy1kqgZi-1">
          <mxGeometry x="165" y="270" width="290" height="40" as="geometry" />
        </mxCell>
        <mxCell id="aUWq5APx-vENAy1kqgZi-7" value="&lt;span style=&quot;white-space: pre;&quot;&gt;&#x9;&lt;/span&gt;&lt;span style=&quot;white-space: pre;&quot;&gt;&#x9;&lt;/span&gt;&amp;nbsp;Аналіз безпеки" style="strokeWidth=1;shadow=0;dashed=0;align=center;html=1;shape=mxgraph.mockup.text.textBox;fontColor=#666666;align=left;fontSize=17;spacingLeft=4;spacingTop=-3;whiteSpace=wrap;strokeColor=#666666;mainText=" vertex="1" parent="aUWq5APx-vENAy1kqgZi-1">
          <mxGeometry x="165" y="170" width="290" height="40" as="geometry" />
        </mxCell>
        <mxCell id="0Llpfr5Ynd1cjQDhYWtW-1" value="" style="strokeWidth=1;shadow=0;dashed=0;align=center;html=1;shape=mxgraph.mockup.containers.browserWindow;rSize=0;strokeColor=#666666;strokeColor2=#97D077;strokeColor3=#c4c4c4;mainText=,;recursiveResize=0;" vertex="1" parent="1">
          <mxGeometry x="-10" y="50" width="620" height="350" as="geometry" />
        </mxCell>
        <mxCell id="0Llpfr5Ynd1cjQDhYWtW-2" value="Page" style="strokeWidth=1;shadow=0;dashed=0;align=center;html=1;shape=mxgraph.mockup.containers.anchor;fontSize=17;fontColor=#666666;align=left;whiteSpace=wrap;" vertex="1" parent="0Llpfr5Ynd1cjQDhYWtW-1">
          <mxGeometry x="60" y="12" width="110" height="26" as="geometry" />
        </mxCell>
        <mxCell id="0Llpfr5Ynd1cjQDhYWtW-3" value="https://www.asfi.com/start_analysis" style="strokeWidth=1;shadow=0;dashed=0;align=center;html=1;shape=mxgraph.mockup.containers.anchor;rSize=0;fontSize=17;fontColor=#666666;align=left;" vertex="1" parent="0Llpfr5Ynd1cjQDhYWtW-1">
          <mxGeometry x="130" y="60" width="250" height="26" as="geometry" />
        </mxCell>
        <mxCell id="0Llpfr5Ynd1cjQDhYWtW-4" value="&lt;b&gt;&lt;font style=&quot;font-size: 22px;&quot;&gt;Аналіз&amp;nbsp; безпеки&lt;/font&gt;&lt;/b&gt;" style="text;html=1;strokeColor=none;fillColor=none;align=center;verticalAlign=middle;whiteSpace=wrap;rounded=0;" vertex="1" parent="0Llpfr5Ynd1cjQDhYWtW-1">
          <mxGeometry x="220" y="160" width="180" height="30" as="geometry" />
        </mxCell>
        <mxCell id="0Llpfr5Ynd1cjQDhYWtW-5" value="&amp;nbsp; &amp;nbsp;Почати аналіз заходів безпеки&amp;nbsp; &amp;nbsp; &amp;nbsp; &amp;nbsp; &amp;nbsp; &amp;nbsp; &amp;nbsp; &amp;nbsp; &amp;nbsp; &amp;nbsp;робочого простору" style="strokeWidth=1;shadow=0;dashed=0;align=center;html=1;shape=mxgraph.mockup.text.textBox;fontColor=#666666;align=left;fontSize=17;spacingLeft=4;spacingTop=-3;whiteSpace=wrap;strokeColor=#666666;mainText=" vertex="1" parent="0Llpfr5Ynd1cjQDhYWtW-1">
          <mxGeometry x="165" y="230" width="290" height="40" as="geometry" />
        </mxCell>
        <mxCell id="21JOKxgmijv3P9REUScZ-1" value="" style="strokeWidth=1;shadow=0;dashed=0;align=center;html=1;shape=mxgraph.mockup.containers.browserWindow;rSize=0;strokeColor=#666666;strokeColor2=#97D077;strokeColor3=#c4c4c4;mainText=,;recursiveResize=0;" vertex="1" parent="1">
          <mxGeometry x="-10" y="450" width="620" height="350" as="geometry" />
        </mxCell>
        <mxCell id="21JOKxgmijv3P9REUScZ-2" value="Page" style="strokeWidth=1;shadow=0;dashed=0;align=center;html=1;shape=mxgraph.mockup.containers.anchor;fontSize=17;fontColor=#666666;align=left;whiteSpace=wrap;" vertex="1" parent="21JOKxgmijv3P9REUScZ-1">
          <mxGeometry x="60" y="12" width="110" height="26" as="geometry" />
        </mxCell>
        <mxCell id="21JOKxgmijv3P9REUScZ-3" value="https://www.asfi.com/analysis_result?id=xxxx" style="strokeWidth=1;shadow=0;dashed=0;align=center;html=1;shape=mxgraph.mockup.containers.anchor;rSize=0;fontSize=17;fontColor=#666666;align=left;" vertex="1" parent="21JOKxgmijv3P9REUScZ-1">
          <mxGeometry x="130" y="60" width="250" height="26" as="geometry" />
        </mxCell>
        <mxCell id="21JOKxgmijv3P9REUScZ-4" value="&lt;b&gt;&lt;font style=&quot;font-size: 22px;&quot;&gt;Результати аналізу&lt;/font&gt;&lt;/b&gt;" style="text;html=1;strokeColor=none;fillColor=none;align=center;verticalAlign=middle;whiteSpace=wrap;rounded=0;" vertex="1" parent="21JOKxgmijv3P9REUScZ-1">
          <mxGeometry x="190" y="120" width="240" height="30" as="geometry" />
        </mxCell>
        <mxCell id="21JOKxgmijv3P9REUScZ-5" value="" style="verticalLabelPosition=bottom;shadow=0;dashed=0;align=center;html=1;verticalAlign=top;strokeWidth=1;shape=mxgraph.mockup.graphics.columnChart;strokeColor2=none;strokeColor3=#666666;fillColor2=#97D077;fillColor3=#dddddd;" vertex="1" parent="21JOKxgmijv3P9REUScZ-1">
          <mxGeometry x="130" y="160" width="360" height="170" as="geometry" />
        </mxCell>
        <mxCell id="5hPsoriBlj9fGjDwaPI_-1" value="" style="endArrow=classic;html=1;rounded=0;exitX=-0.007;exitY=0.51;exitDx=0;exitDy=0;exitPerimeter=0;entryX=1.004;entryY=0.544;entryDx=0;entryDy=0;entryPerimeter=0;" edge="1" parent="1" source="aUWq5APx-vENAy1kqgZi-7" target="0Llpfr5Ynd1cjQDhYWtW-1">
          <mxGeometry width="50" height="50" relative="1" as="geometry">
            <mxPoint x="790" y="590" as="sourcePoint" />
            <mxPoint x="670" y="560" as="targetPoint" />
          </mxGeometry>
        </mxCell>
        <mxCell id="5hPsoriBlj9fGjDwaPI_-2" value="" style="endArrow=classic;html=1;rounded=0;exitX=0.464;exitY=1.062;exitDx=0;exitDy=0;exitPerimeter=0;" edge="1" parent="1" source="0Llpfr5Ynd1cjQDhYWtW-5" target="21JOKxgmijv3P9REUScZ-1">
          <mxGeometry width="50" height="50" relative="1" as="geometry">
            <mxPoint x="450" y="430" as="sourcePoint" />
            <mxPoint x="500" y="380" as="targetPoint" />
          </mxGeometry>
        </mxCell>
      </root>
    </mxGraphModel>
  </diagram>
  <diagram id="_tpnhEzqTxR2vxqkc4Xw" name="Страница — 3">
    <mxGraphModel dx="2812" dy="2793" grid="1" gridSize="10" guides="1" tooltips="1" connect="1" arrows="1" fold="1" page="1" pageScale="1" pageWidth="827" pageHeight="1169" math="0" shadow="0">
      <root>
        <mxCell id="0" />
        <mxCell id="1" parent="0" />
        <mxCell id="9X2fpXUsZ_cMUQ6Gc3UH-9" value="" style="strokeWidth=1;shadow=0;dashed=0;align=center;html=1;shape=mxgraph.mockup.containers.browserWindow;rSize=0;strokeColor=#666666;strokeColor2=#97D077;strokeColor3=#c4c4c4;mainText=,;recursiveResize=0;" vertex="1" parent="1">
          <mxGeometry x="-210" y="70" width="620" height="350" as="geometry" />
        </mxCell>
        <mxCell id="9X2fpXUsZ_cMUQ6Gc3UH-10" value="Page" style="strokeWidth=1;shadow=0;dashed=0;align=center;html=1;shape=mxgraph.mockup.containers.anchor;fontSize=17;fontColor=#666666;align=left;whiteSpace=wrap;" vertex="1" parent="9X2fpXUsZ_cMUQ6Gc3UH-9">
          <mxGeometry x="60" y="12" width="110" height="26" as="geometry" />
        </mxCell>
        <mxCell id="9X2fpXUsZ_cMUQ6Gc3UH-11" value="https://www.asfi.com/menu" style="strokeWidth=1;shadow=0;dashed=0;align=center;html=1;shape=mxgraph.mockup.containers.anchor;rSize=0;fontSize=17;fontColor=#666666;align=left;" vertex="1" parent="9X2fpXUsZ_cMUQ6Gc3UH-9">
          <mxGeometry x="130" y="60" width="250" height="26" as="geometry" />
        </mxCell>
        <mxCell id="9X2fpXUsZ_cMUQ6Gc3UH-12" value="&lt;b&gt;&lt;font style=&quot;font-size: 22px;&quot;&gt;Меню&lt;/font&gt;&lt;/b&gt;" style="text;html=1;strokeColor=none;fillColor=none;align=center;verticalAlign=middle;whiteSpace=wrap;rounded=0;" vertex="1" parent="9X2fpXUsZ_cMUQ6Gc3UH-9">
          <mxGeometry x="280" y="140" width="60" height="30" as="geometry" />
        </mxCell>
        <mxCell id="9X2fpXUsZ_cMUQ6Gc3UH-13" value="&amp;nbsp; Формування допоміжного пакету" style="strokeWidth=1;shadow=0;dashed=0;align=center;html=1;shape=mxgraph.mockup.text.textBox;fontColor=#666666;align=left;fontSize=17;spacingLeft=4;spacingTop=-3;whiteSpace=wrap;strokeColor=#666666;mainText=" vertex="1" parent="9X2fpXUsZ_cMUQ6Gc3UH-9">
          <mxGeometry x="165" y="220" width="290" height="40" as="geometry" />
        </mxCell>
        <mxCell id="9X2fpXUsZ_cMUQ6Gc3UH-14" value="&lt;span style=&quot;white-space: pre;&quot;&gt;&#x9;&lt;/span&gt;&lt;span style=&quot;white-space: pre;&quot;&gt;&#x9;&lt;/span&gt;&amp;nbsp; &amp;nbsp; &amp;nbsp; Профіль" style="strokeWidth=1;shadow=0;dashed=0;align=center;html=1;shape=mxgraph.mockup.text.textBox;fontColor=#666666;align=left;fontSize=17;spacingLeft=4;spacingTop=-3;whiteSpace=wrap;strokeColor=#666666;mainText=" vertex="1" parent="9X2fpXUsZ_cMUQ6Gc3UH-9">
          <mxGeometry x="165" y="270" width="290" height="40" as="geometry" />
        </mxCell>
        <mxCell id="9X2fpXUsZ_cMUQ6Gc3UH-15" value="&lt;span style=&quot;white-space: pre;&quot;&gt;&#x9;&lt;/span&gt;&lt;span style=&quot;white-space: pre;&quot;&gt;&#x9;&lt;/span&gt;&amp;nbsp;Аналіз безпеки" style="strokeWidth=1;shadow=0;dashed=0;align=center;html=1;shape=mxgraph.mockup.text.textBox;fontColor=#666666;align=left;fontSize=17;spacingLeft=4;spacingTop=-3;whiteSpace=wrap;strokeColor=#666666;mainText=" vertex="1" parent="9X2fpXUsZ_cMUQ6Gc3UH-9">
          <mxGeometry x="165" y="170" width="290" height="40" as="geometry" />
        </mxCell>
        <mxCell id="9X2fpXUsZ_cMUQ6Gc3UH-16" value="" style="strokeWidth=1;shadow=0;dashed=0;align=center;html=1;shape=mxgraph.mockup.containers.browserWindow;rSize=0;strokeColor=#666666;strokeColor2=#97D077;strokeColor3=#c4c4c4;mainText=,;recursiveResize=0;" vertex="1" parent="1">
          <mxGeometry x="556" y="70" width="620" height="350" as="geometry" />
        </mxCell>
        <mxCell id="9X2fpXUsZ_cMUQ6Gc3UH-17" value="Page" style="strokeWidth=1;shadow=0;dashed=0;align=center;html=1;shape=mxgraph.mockup.containers.anchor;fontSize=17;fontColor=#666666;align=left;whiteSpace=wrap;" vertex="1" parent="9X2fpXUsZ_cMUQ6Gc3UH-16">
          <mxGeometry x="60" y="12" width="110" height="26" as="geometry" />
        </mxCell>
        <mxCell id="9X2fpXUsZ_cMUQ6Gc3UH-18" value="https://www.asfi.com/menu" style="strokeWidth=1;shadow=0;dashed=0;align=center;html=1;shape=mxgraph.mockup.containers.anchor;rSize=0;fontSize=17;fontColor=#666666;align=left;" vertex="1" parent="9X2fpXUsZ_cMUQ6Gc3UH-16">
          <mxGeometry x="130" y="60" width="250" height="26" as="geometry" />
        </mxCell>
        <mxCell id="9X2fpXUsZ_cMUQ6Gc3UH-19" value="&lt;b&gt;&lt;font style=&quot;font-size: 22px;&quot;&gt;Сформувати допоміжний пакет&lt;/font&gt;&lt;/b&gt;" style="text;html=1;strokeColor=none;fillColor=none;align=center;verticalAlign=middle;whiteSpace=wrap;rounded=0;" vertex="1" parent="9X2fpXUsZ_cMUQ6Gc3UH-16">
          <mxGeometry x="130" y="140" width="360" height="30" as="geometry" />
        </mxCell>
        <mxCell id="9X2fpXUsZ_cMUQ6Gc3UH-20" value="&amp;nbsp; &amp;nbsp;Сформувати допоміжний пакет" style="strokeWidth=1;shadow=0;dashed=0;align=center;html=1;shape=mxgraph.mockup.text.textBox;fontColor=#666666;align=left;fontSize=17;spacingLeft=4;spacingTop=-3;whiteSpace=wrap;strokeColor=#666666;mainText=" vertex="1" parent="9X2fpXUsZ_cMUQ6Gc3UH-16">
          <mxGeometry x="165" y="180" width="290" height="40" as="geometry" />
        </mxCell>
        <mxCell id="9X2fpXUsZ_cMUQ6Gc3UH-21" value="" style="strokeWidth=1;shadow=0;dashed=0;align=center;html=1;shape=mxgraph.mockup.containers.browserWindow;rSize=0;strokeColor=#666666;strokeColor2=#97D077;strokeColor3=#c4c4c4;mainText=,;recursiveResize=0;" vertex="1" parent="1">
          <mxGeometry x="556" y="480" width="620" height="350" as="geometry" />
        </mxCell>
        <mxCell id="9X2fpXUsZ_cMUQ6Gc3UH-22" value="Page" style="strokeWidth=1;shadow=0;dashed=0;align=center;html=1;shape=mxgraph.mockup.containers.anchor;fontSize=17;fontColor=#666666;align=left;whiteSpace=wrap;" vertex="1" parent="9X2fpXUsZ_cMUQ6Gc3UH-21">
          <mxGeometry x="60" y="12" width="110" height="26" as="geometry" />
        </mxCell>
        <mxCell id="9X2fpXUsZ_cMUQ6Gc3UH-23" value="https://www.asfi.com/menu" style="strokeWidth=1;shadow=0;dashed=0;align=center;html=1;shape=mxgraph.mockup.containers.anchor;rSize=0;fontSize=17;fontColor=#666666;align=left;" vertex="1" parent="9X2fpXUsZ_cMUQ6Gc3UH-21">
          <mxGeometry x="130" y="60" width="250" height="26" as="geometry" />
        </mxCell>
        <mxCell id="9X2fpXUsZ_cMUQ6Gc3UH-24" value="&lt;span style=&quot;font-size: 22px;&quot;&gt;&lt;b&gt;Пакет допомоги для споживачів&lt;/b&gt;&lt;/span&gt;" style="text;html=1;strokeColor=none;fillColor=none;align=center;verticalAlign=middle;whiteSpace=wrap;rounded=0;" vertex="1" parent="9X2fpXUsZ_cMUQ6Gc3UH-21">
          <mxGeometry x="130" y="140" width="360" height="30" as="geometry" />
        </mxCell>
        <mxCell id="9X2fpXUsZ_cMUQ6Gc3UH-25" value="" style="shape=note;size=20;whiteSpace=wrap;html=1;" vertex="1" parent="9X2fpXUsZ_cMUQ6Gc3UH-21">
          <mxGeometry x="85" y="200" width="450" height="100" as="geometry" />
        </mxCell>
        <mxCell id="9X2fpXUsZ_cMUQ6Gc3UH-26" value="" style="endArrow=classic;html=1;rounded=0;exitX=1;exitY=0.552;exitDx=0;exitDy=0;exitPerimeter=0;entryX=-0.003;entryY=0.562;entryDx=0;entryDy=0;entryPerimeter=0;" edge="1" parent="1" source="9X2fpXUsZ_cMUQ6Gc3UH-13" target="9X2fpXUsZ_cMUQ6Gc3UH-16">
          <mxGeometry width="50" height="50" relative="1" as="geometry">
            <mxPoint x="294.2600000000002" y="-260.24000000000024" as="sourcePoint" />
            <mxPoint x="442.6699999999996" y="-259.98" as="targetPoint" />
          </mxGeometry>
        </mxCell>
        <mxCell id="9X2fpXUsZ_cMUQ6Gc3UH-28" value="" style="endArrow=classic;html=1;rounded=0;entryX=0.494;entryY=-0.006;entryDx=0;entryDy=0;entryPerimeter=0;exitX=0.466;exitY=1.025;exitDx=0;exitDy=0;exitPerimeter=0;" edge="1" parent="1" source="9X2fpXUsZ_cMUQ6Gc3UH-20" target="9X2fpXUsZ_cMUQ6Gc3UH-21">
          <mxGeometry width="50" height="50" relative="1" as="geometry">
            <mxPoint x="886" y="380" as="sourcePoint" />
            <mxPoint x="887" y="480" as="targetPoint" />
          </mxGeometry>
        </mxCell>
      </root>
    </mxGraphModel>
  </diagram>
</mxfile>
